<svg width="20" height="21" fill="none" xmlns="http://www.w3.org/2000/svg"><g clip-path="url(#clip0_2205_708)"><path d="M13.75.437h-7.5A6.25 6.25 0 000 6.687v7.5a6.25 6.25 0 006.25 6.25h7.5a6.25 6.25 0 006.25-6.25v-7.5a6.25 6.25 0 00-6.25-6.25zm4.375 13.75a4.38 4.38 0 01-4.375 4.375h-7.5a4.38 4.38 0 01-4.375-4.375v-7.5A4.38 4.38 0 016.25 2.312h7.5a4.38 4.38 0 014.375 4.375v7.5z" fill="url(#paint0_linear_2205_708)"/><path d="M10 5.437a5 5 0 100 10 5 5 0 000-10zm0 8.125a3.13 3.13 0 01-3.125-3.125A3.129 3.129 0 0110 7.312a3.129 3.129 0 013.125 3.125A3.13 3.13 0 0110 13.562z" fill="url(#paint1_linear_2205_708)"/><path d="M15.375 5.728a.666.666 0 100-1.332.666.666 0 000 1.332z" fill="url(#paint2_linear_2205_708)"/></g><defs><linearGradient id="paint0_linear_2205_708" x1="1.831" y1="18.607" x2="18.169" y2="2.268" gradientUnits="userSpaceOnUse"><stop stop-color="#FFC107"/><stop offset=".507" stop-color="#F44336"/><stop offset=".99" stop-color="#9C27B0"/></linearGradient><linearGradient id="paint1_linear_2205_708" x1="6.465" y1="13.973" x2="13.535" y2="6.902" gradientUnits="userSpaceOnUse"><stop stop-color="#FFC107"/><stop offset=".507" stop-color="#F44336"/><stop offset=".99" stop-color="#9C27B0"/></linearGradient><linearGradient id="paint2_linear_2205_708" x1="14.904" y1="5.533" x2="15.846" y2="4.591" gradientUnits="userSpaceOnUse"><stop stop-color="#FFC107"/><stop offset=".507" stop-color="#F44336"/><stop offset=".99" stop-color="#9C27B0"/></linearGradient><clipPath id="clip0_2205_708"><path fill="#fff" transform="translate(0 .437)" d="M0 0h20v20H0z"/></clipPath></defs></svg>