<svg width="30" height="41" fill="none" xmlns="http://www.w3.org/2000/svg"><g clip-path="url(#clip0_2022_20135)" fill="#fff"><path d="M24.682 15.24l-1.94-.283.291-1.97v-.05c.69-3.456-1.1-6.981-4.169-8.214l.718-1.8c3.917 1.551 6.205 6.02 5.356 10.37l-.256 1.947z"/><path d="M20.683 6.914h-1.939c0-3.138-1.245-4.538-4.11-4.538-1.707 0-3.041.776-4.337 1.552-1.36.806-2.773 1.64-4.355 1.163l.574-1.854c.725.225 1.551-.22 2.792-.97 1.377-.818 3.088-1.83 5.325-1.83 3.902 0 6.05 2.3 6.05 6.477zM4.887 13.332a9.28 9.28 0 011.226-6.79l1.648 1.02a7.369 7.369 0 00-.977 5.375l-1.897.395zm9.956 14.901a7.586 7.586 0 01-7.574-7.575v-.112a2.963 2.963 0 01.643-5.84 5.188 5.188 0 011.292-1.552c1.551-1.264 2.532-1.233 4.033-1.183.47 0 1.005.031 1.656 0a4.79 4.79 0 004.212-2.416.97.97 0 011.83.248l.83 4.906a2.963 2.963 0 01.633 5.817v.078a7.586 7.586 0 01-7.555 7.629zM7.959 16.644a1.024 1.024 0 000 2.044h.295a.973.973 0 01.97.985v.997a5.635 5.635 0 1011.27 0l-.067-.962a.969.969 0 01.95-1.02h.218a1.024 1.024 0 000-2.044h-.633a.973.973 0 01-.957-.806l-.617-3.584a6.845 6.845 0 01-4.44 1.676c-.714.019-1.304 0-1.777 0-1.353-.043-1.76-.055-2.738.744a3.204 3.204 0 00-.993 1.358.973.973 0 01-.907.628l-.574-.016z"/><path d="M12.07 20.526a2.715 2.715 0 110-5.43 2.715 2.715 0 010 5.43zm0-3.49a.776.776 0 10.775.776.775.775 0 00-.775-.76v-.016z"/><path d="M17.5 20.526a2.715 2.715 0 110-5.43 2.715 2.715 0 010 5.43zm0-3.49a.776.776 0 10.775.776.775.775 0 00-.776-.76v-.016z"/><path d="M20.502 14.627l-1.999 2.24 1.447 1.291 1.999-2.24-1.447-1.29zm-11.33.002L7.725 15.92l1.999 2.24 1.447-1.291-1.999-2.24zm18.531 18.215a12.966 12.966 0 00-6.353-5.011.95.95 0 00-.903.198c-.027.023-2.734 2.385-5.538 2.385h-.125c-2.8 0-5.483-2.362-5.51-2.381a.946.946 0 00-.939-.19 13.729 13.729 0 00-6.287 5.138c-1.582 2.51-1.613 6.38-1.613 6.57a.95.95 0 00.942.884h6.039l21.05-.027a.95.95 0 00.947-.907c.008-.198-.136-4.162-1.71-6.66z"/></g><defs><clipPath id="clip0_2022_20135"><path fill="#fff" transform="translate(.435 .437)" d="M0 0h28.978v40H0z"/></clipPath></defs></svg>