<svg width="24" height="24" fill="none" xmlns="http://www.w3.org/2000/svg"><g clip-path="url(#clip0_2707_17)"><path d="M23.789 22.776l-5.833-5.832a10.192 10.192 0 002.512-6.71C20.468 4.586 15.876 0 10.235 0 4.589 0 .002 4.592.002 10.233c0 5.641 4.592 10.233 10.233 10.233 2.565 0 4.912-.947 6.71-2.511l5.833 5.832a.723.723 0 00.505.213.72.72 0 00.505-1.224zM1.433 10.233c0-4.853 3.949-8.796 8.797-8.796 4.853 0 8.796 3.948 8.796 8.796 0 4.848-3.943 8.802-8.796 8.802-4.848 0-8.797-3.949-8.797-8.802z" fill="#fff"/></g><defs><clipPath id="clip0_2707_17"><path fill="#fff" d="M0 0h24v24H0z"/></clipPath></defs></svg>