<svg width="16" height="17" fill="none" xmlns="http://www.w3.org/2000/svg"><g clip-path="url(#clip0_2205_667)" fill="#37454A" fill-opacity=".4"><path d="M6.032 5.175l-.134.144.134-.144zm2.778.514c.207.256.31.558.31.905 0 .25-.07.488-.212.72-.078.13-.18.257-.309.378l-.426.42c-.409.402-.673.758-.793 1.07-.121.31-.181.72-.181 1.227h.948c0-.447.05-.786.152-1.015.101-.229.322-.508.663-.839.47-.454.78-.8.935-1.033.154-.235.232-.54.232-.917 0-.62-.21-1.131-.632-1.531-.42-.4-.98-.6-1.68-.6-.757 0-1.352.234-1.785.7-.433.468-.65 1.084-.65 1.852h.948c.018-.462.091-.816.218-1.06.227-.44.637-.661 1.23-.661.48 0 .824.128 1.031.384z"/><path d="M16 8.437a8 8 0 10-16 0 8 8 0 0016 0zm-15.273 0a7.273 7.273 0 1114.545 0 7.273 7.273 0 01-14.545 0z"/><path d="M8.237 11.293h-1.06V12.4h1.06v-1.107z"/></g><defs><clipPath id="clip0_2205_667"><path fill="#fff" transform="translate(0 .437)" d="M0 0h16v16H0z"/></clipPath></defs></svg>