<svg width="30" height="28" fill="none" xmlns="http://www.w3.org/2000/svg"><path fill-rule="evenodd" clip-rule="evenodd" d="M23.053 21.44a3.287 3.287 0 013.294 3.281A3.286 3.286 0 0123.053 28a3.286 3.286 0 01-3.293-3.279 3.287 3.287 0 013.293-3.281zm-13.173 0a3.288 3.288 0 013.293 3.281A3.287 3.287 0 019.88 28a3.286 3.286 0 01-3.293-3.279A3.287 3.287 0 019.88 21.44zM29.64 6.682l-1.647 4.92c-.609 1.379-1.473 3.279-3.293 3.279H8.826l.194 1.642h20.62L27.993 19.8H7.166l-1.059.124-1.953-16.52H1.647C.737 3.404 0 2.669 0 1.764 0 .858.58.024 1.489.024L7.066 0l.418 3.54c.206-.08.44-.136.75-.136h19.76c1.819 0 1.646 1.468 1.646 3.278z" fill="#37454A" fill-opacity=".9"/></svg>