<svg width="16" height="17" fill="none" xmlns="http://www.w3.org/2000/svg"><g clip-path="url(#clip0_2205_676)" fill="#37454A" fill-opacity=".4"><path d="M7.983 16.437A7.794 7.794 0 014.83 15.8c-.268-.1-.369-.403-.268-.67.1-.27.402-.37.67-.27.873.37 1.778.571 2.751.571a6.972 6.972 0 006.977-6.977 6.971 6.971 0 00-6.977-6.977c-3.32 0-6.205 2.348-6.843 5.602a2.935 2.935 0 00-.067.536 6.533 6.533 0 00-.067.84c0 1.81.705 3.555 1.98 4.863a.486.486 0 010 .704.486.486 0 01-.705 0C.839 12.512.034 10.567.034 8.454c0-.335.033-.67.067-.973.033-.201.067-.402.1-.637C.906 3.121 4.193.437 7.983.437c4.394 0 7.984 3.59 7.984 7.983 0 4.428-3.556 8.017-7.984 8.017z"/><path d="M2.985 16.303a5.135 5.135 0 01-2.515-.67.492.492 0 01-.168-.705.492.492 0 01.704-.168c.604.37 1.308.537 2.013.537a3.8 3.8 0 001.811-.436c.235-.134.537-.034.671.235.134.235.034.536-.235.67-.704.37-1.476.537-2.28.537z"/><path d="M.738 15.7a.506.506 0 01-.47-.303c-.1-.268 0-.536.269-.67a4.173 4.173 0 001.677-1.376c.168-.235.47-.302.704-.134.235.168.302.47.134.704-.536.772-1.24 1.376-2.08 1.745-.1.033-.167.033-.234.033zm7.245-6.34a.94.94 0 100-1.879.94.94 0 000 1.879zm3.589 0a.94.94 0 100-1.879.94.94 0 000 1.879zm-7.212 0a.94.94 0 100-1.879.94.94 0 000 1.879z"/></g><defs><clipPath id="clip0_2205_676"><path fill="#fff" transform="translate(0 .437)" d="M0 0h16v16H0z"/></clipPath></defs></svg>