<svg width="36" height="24" fill="none" xmlns="http://www.w3.org/2000/svg"><g clip-path="url(#clip0_2022_20145)" fill="#fff"><path d="M30.259 8.817c.623 1.792 2.292 3.69 4.203 3.69h1.528v-1.91h-1.528c-.913 0-1.995-1.268-2.392-2.407a11.398 11.398 0 10-.913 9.484c.684-1.173 1.582-1.987 2.185-1.987h2.63v-1.91h-2.634c-1.91 0-3.32 2.051-3.82 2.934a9.472 9.472 0 01-11.074 4.276 11.386 11.386 0 000-18.085 9.171 9.171 0 011.945-.405 9.491 9.491 0 019.87 6.32zM21 11.942a9.47 9.47 0 01-4.586 8.128 9.549 9.549 0 01-2.07-1.655 9.708 9.708 0 01-1.319-1.822c.118.027.239.041.36.042 1.528 0 2.716-2.064 2.716-4.696 0-2.633-1.192-4.696-2.717-4.696-.115 0-.23.014-.344.038a9.697 9.697 0 013.37-3.466A9.472 9.472 0 0121 11.942zm-13.961-.317H.97v1.91h6.07v-1.91zm-2.85-6.343l-1.117 1.55 3.852 2.774L8.04 8.055 4.189 5.282zm2.736 10.27l-3.852 2.772 1.116 1.55 3.852-2.771-1.116-1.55z"/></g><defs><clipPath id="clip0_2022_20145"><path fill="#fff" transform="translate(.971 .544)" d="M0 0h35v22.796H0z"/></clipPath></defs></svg>