<svg width="36" height="27" fill="none" xmlns="http://www.w3.org/2000/svg"><g clip-path="url(#clip0_2022_20090)" fill="#fff"><path d="M13.732 26.51a14.152 14.152 0 01-5.488-1.148 13.364 13.364 0 01-6.6-5.804c-1.398-2.584-1.6-5.332-.577-7.749l1.636.711c-.807 1.891-.63 4.091.504 6.188a11.576 11.576 0 005.72 5.02 11.59 11.59 0 007.584.635c2.293-.64 4.006-2.04 4.813-3.945l1.638.711c-1.027 2.413-3.149 4.173-5.974 4.976a12.11 12.11 0 01-3.256.405z"/><path d="M20.474 22.288c-3.373 0-8.97-2.325-9.799-2.673-1.12-.476-10.908-4.738-9.654-7.695 1.255-2.958 11.133 1.137 12.238 1.613a43.758 43.758 0 015.484 2.766l-.902 1.52a41.807 41.807 0 00-5.257-2.65c-5.378-2.28-8.872-2.741-9.825-2.51.509.856 3.256 3.042 8.613 5.317 5.356 2.275 8.829 2.74 9.796 2.513-.2-.313-.768-.952-2.133-1.88l1.006-1.465c2.424 1.668 3.33 2.965 2.843 4.08-.298.772-1.215 1.064-2.41 1.064zM33.92 7.772l-1.172 1.332c.313.256.589.555.817.89-.97.227-4.46-.246-9.796-2.514-5.335-2.268-8.114-4.471-8.612-5.317.956-.235 4.46.23 9.792 2.51a37.738 37.738 0 016.622 3.532l1.034-1.443a39.62 39.62 0 00-6.945-3.725c-1.105-.473-10.723-4.45-12.18-1.72 0 .028-.022.057-.036.089v.021a.17.17 0 000 .046c-2.001 4.873 1.215 10.852 7.187 13.39a14.097 14.097 0 005.502 1.14 12.208 12.208 0 003.252-.433c2.77-.771 4.86-2.488 5.908-4.813a.212.212 0 01.021-.039v-.032l.035-.078c.41-1.216-.963-2.424-1.428-2.836zm-7.193 5.473a5.349 5.349 0 01-4.582-.64l.981-1.482a3.555 3.555 0 003.06.427l.15-.046.54 1.692-.15.05zM12.964 23.916a5.332 5.332 0 01-2.943-.893l.981-1.482a3.555 3.555 0 003.06.427l.153-.046.537 1.695-.15.046a5.368 5.368 0 01-1.638.253z"/></g><defs><clipPath id="clip0_2022_20090"><path fill="#fff" transform="translate(.424 .364)" d="M0 0h35v26.146H0z"/></clipPath></defs></svg>