<svg width="26" height="36" fill="none" xmlns="http://www.w3.org/2000/svg"><g clip-path="url(#clip0_2022_20157)" fill="#fff"><path d="M23.832 28.212c-1.916-3.044-5.418-4.143-5.565-4.187a.921.921 0 00-.885.195l-4.386 3.933-4.644-3.944a.917.917 0 00-.896-.166c-.154.048-3.6 1.26-5.517 4.29C.638 30.399.833 34.6.833 35.068a.922.922 0 00.944.885h15.878l2.58-.022h3.852a.921.921 0 00.921-.892c.015-.494.122-4.762-1.176-6.826zm-3.538 3.686h-3.686v-1.843h3.686v1.843z"/><path d="M23.57 24.312h-1.842v-12.8a8.732 8.732 0 00-17.463 0v12.8H2.422v-12.8a10.574 10.574 0 0121.148 0v12.8z"/><path d="M12.705 23.218c-3.8 0-6.668-3.041-6.668-7.073a.936.936 0 01.325-.697c.026 0 2.524-2.211 4.791-4.264a15.025 15.025 0 003.236-4.32l1.677.76a16.696 16.696 0 01-3.685 4.923c-1.788 1.659-3.73 3.343-4.486 4.007.173 2.812 2.152 4.82 4.81 4.82a4.828 4.828 0 004.825-4.824v-.641a13.51 13.51 0 00-1.917-6.266l1.574-.966a15.152 15.152 0 012.185 7.232v.641a6.674 6.674 0 01-6.667 6.668z"/></g><defs><clipPath id="clip0_2022_20157"><path fill="#fff" transform="translate(.833 .937)" d="M0 0h24.182v35H0z"/></clipPath></defs></svg>