<svg width="36" height="26" fill="none" xmlns="http://www.w3.org/2000/svg"><g clip-path="url(#clip0_2022_20114)" fill="#fff"><path d="M26.403 25.384a7.036 7.036 0 117.033-7.036 7.044 7.044 0 01-7.033 7.037zm0-12.197a5.164 5.164 0 10-.008 10.329 5.164 5.164 0 00.008-10.329zm-13.179 8.621l-1.258-1.397a2.604 2.604 0 10-3.505-3.853l-1.24-1.39a4.493 4.493 0 015.992 6.64h.011z"/><path d="M29.193 21.808l-1.259-1.397a2.621 2.621 0 00.188-3.677 2.603 2.603 0 00-3.678-.184l-1.25-1.382a4.474 4.474 0 017.108 5.243 4.473 4.473 0 01-1.117 1.397h.008zm-18.661 3.576a7.037 7.037 0 117.037-7.036 7.044 7.044 0 01-7.037 7.037zm0-12.197a5.164 5.164 0 100 10.329 5.164 5.164 0 000-10.329z"/><path d="M20.988 15.756a4.79 4.79 0 00-4.91 0l-.959-1.606a6.643 6.643 0 016.827 0l-.958 1.606zm-.854 3.281a3.109 3.109 0 00-3.202 0l-.963-1.622a4.996 4.996 0 015.127 0l-.962 1.622zM3.016 14.955H1.143v2.704h1.873v-2.704zm32.955 0h-1.872v2.704h1.872v-2.704zM2.29 12.573l-1.32-1.33L11.116 1.208a.932.932 0 011.232-.07l3.045 2.37-1.154 1.498-2.408-1.888-9.542 9.456zm32.254 0l-9.557-9.456L22.59 4.99l-1.15-1.483 3.045-2.37a.936.936 0 011.233.07l10.144 10.037-1.318 1.33z"/></g><defs><clipPath id="clip0_2022_20114"><path fill="#fff" transform="translate(.971 .938)" d="M0 0h35v24.447H0z"/></clipPath></defs></svg>